<svg width="1200" height="800" viewBox="0 0 1200 800" fill="none" xmlns="http://www.w3.org/2000/svg">
  <defs>
    <linearGradient id="bg" x1="0" y1="0" x2="1200" y2="800" gradientUnits="userSpaceOnUse">
      <stop stop-color="#2f1d18"/>
      <stop offset="0.45" stop-color="#6e283f"/>
      <stop offset="1" stop-color="#e75480"/>
    </linearGradient>
    <linearGradient id="card" x1="220" y1="180" x2="980" y2="660" gradientUnits="userSpaceOnUse">
      <stop stop-color="#fff4ec"/>
      <stop offset="1" stop-color="#f8e8dc"/>
    </linearGradient>
    <filter id="shadow" x="-20%" y="-20%" width="140%" height="140%">
      <feDropShadow dx="0" dy="24" stdDeviation="25" flood-color="#000" flood-opacity="0.28"/>
    </filter>
  </defs>
  <rect width="1200" height="800" fill="url(#bg)"/>
  <circle cx="1040" cy="120" r="190" fill="#d99a5b" opacity="0.18"/>
  <circle cx="125" cy="690" r="220" fill="#fff4ec" opacity="0.13"/>
  <g opacity="0.22" stroke="#fff4ec" stroke-width="3">
    <path d="M95 120h170M95 160h115M935 610h165M990 650h110"/>
  </g>
  <rect x="185" y="150" width="830" height="500" rx="48" fill="url(#card)" filter="url(#shadow)"/>
  <rect x="245" y="230" width="710" height="280" rx="38" fill="#2f1d18"/>
  <rect x="285" y="270" width="630" height="200" rx="22" fill="#111"/>
  <path d="M332 345h92M378 299v92" stroke="#e75480" stroke-width="22" stroke-linecap="round"/>
  <circle cx="774" cy="346" r="30" fill="#d99a5b"/>
  <circle cx="850" cy="346" r="30" fill="#c65d7b"/>
  <path d="M420 555h360" stroke="#6e283f" stroke-width="20" stroke-linecap="round"/>
  <path d="M500 590h200" stroke="#c46a3b" stroke-width="16" stroke-linecap="round"/>
  <text x="600" y="105" font-family="Arial, Helvetica, sans-serif" font-size="54" font-weight="800" text-anchor="middle" fill="#fff4ec">Loja de Games</text>
  <text x="600" y="710" font-family="Arial, Helvetica, sans-serif" font-size="42" font-weight="800" text-anchor="middle" fill="#fff4ec">Projeto em Linguagem C</text>
</svg>